<svg width="32" height="22" viewBox="0 0 32 22" fill="none" xmlns="http://www.w3.org/2000/svg">
<rect x="0.5" y="0.5" width="31" height="21" rx="3.5" fill="white"/>
<path fill-rule="evenodd" clip-rule="evenodd" d="M15.9997 16.0118C14.8377 17.0172 13.3303 17.6242 11.6831 17.6242C8.00778 17.6242 5.02832 14.6023 5.02832 10.8746C5.02832 7.14689 8.00778 4.125 11.6831 4.125C13.3303 4.125 14.8377 4.73196 15.9997 5.73739C17.1618 4.73196 18.6692 4.125 20.3164 4.125C23.9917 4.125 26.9712 7.14689 26.9712 10.8746C26.9712 14.6023 23.9917 17.6242 20.3164 17.6242C18.6692 17.6242 17.1618 17.0172 15.9997 16.0118Z" fill="#ED0006"/>
<path fill-rule="evenodd" clip-rule="evenodd" d="M16 16.0118C17.4309 14.7738 18.3382 12.9317 18.3382 10.8746C18.3382 8.81752 17.4309 6.97538 16 5.73739C17.1621 4.73196 18.6695 4.125 20.3166 4.125C23.992 4.125 26.9714 7.14689 26.9714 10.8746C26.9714 14.6023 23.992 17.6242 20.3166 17.6242C18.6695 17.6242 17.1621 17.0172 16 16.0118Z" fill="#F9A000"/>
<path fill-rule="evenodd" clip-rule="evenodd" d="M16.0003 16.0118C17.4311 14.7738 18.3384 12.9317 18.3384 10.8746C18.3384 8.81758 17.4311 6.97546 16.0003 5.73746C14.5694 6.97546 13.6621 8.81758 13.6621 10.8746C13.6621 12.9317 14.5694 14.7738 16.0003 16.0118Z" fill="#FF5E00"/>
<rect x="0.5" y="0.5" width="31" height="21" rx="3.5" stroke="#F2F4F7"/>
</svg>
